<svg width="30" height="30" viewBox="0 0 30 30" fill="none" xmlns="http://www.w3.org/2000/svg">
<path d="M24.6718 23.3282L24.3935 23.05H24H3C1.87467 23.05 0.95 22.1253 0.95 21V3C0.95 1.87467 1.87467 0.95 3 0.95H27C28.1253 0.95 29.05 1.87467 29.05 3V27.7065L24.6718 23.3282ZM17.45 18V14.45H21C22.3497 14.45 23.45 13.3497 23.45 12C23.45 10.6503 22.3497 9.55 21 9.55H17.45V6C17.45 4.65033 16.3497 3.55 15 3.55C13.6503 3.55 12.55 4.65033 12.55 6V9.55H9C7.65033 9.55 6.55 10.6503 6.55 12C6.55 13.3497 7.65033 14.45 9 14.45H12.55V18C12.55 19.3497 13.6503 20.45 15 20.45C16.3497 20.45 17.45 19.3497 17.45 18Z" stroke="black" stroke-width="1.9"/>
</svg>
