<svg width="30" height="30" viewBox="0 0 30 30" fill="#393939" xmlns="http://www.w3.org/2000/svg">
      <mask id="mask0_302_33" style={{ maskType: 'alpha' }} maskUnits="userSpaceOnUse" x="0" y="0" width="30" height="30">
        <rect width="29.4828" height="30" fill="#393939" />
      </mask>
      <g mask="url(#mask0_302_33)">
<path d="M14.7414 26.25L12.9601 24.625C10.8922 22.7292 9.18265 21.0938 7.83136 19.7188C6.48006 18.3437 5.40517 17.1094 4.60668 16.0156C3.80819 14.9219 3.25027 13.9167 2.93292 13C2.61557 12.0833 2.45689 11.1458 2.45689 10.1875C2.45689 8.22917 3.10183 6.59375 4.3917 5.28125C5.68157 3.96875 7.28879 3.3125 9.21336 3.3125C10.278 3.3125 11.2915 3.54167 12.2538 4C13.2161 4.45833 14.0453 5.10417 14.7414 5.9375C15.4375 5.10417 16.2667 4.45833 17.229 4C18.1913 3.54167 19.2047 3.3125 20.2694 3.3125C22.194 3.3125 23.8012 3.96875 25.0911 5.28125C26.3809 6.59375 27.0259 8.22917 27.0259 10.1875C27.0259 11.1458 26.8672 12.0833 26.5498 13C26.2325 13.9167 25.6746 14.9219 24.8761 16.0156C24.0776 17.1094 23.0027 18.3437 21.6514 19.7188C20.3001 21.0938 18.5905 22.7292 16.5226 24.625L14.7414 26.25ZM14.7414 22.875C16.7069 21.0833 18.3244 19.5469 19.5937 18.2656C20.8631 16.9844 21.8664 15.8698 22.6034 14.9219C23.3405 13.974 23.8524 13.1302 24.139 12.3906C24.4256 11.651 24.569 10.9167 24.569 10.1875C24.569 8.9375 24.1595 7.89583 23.3405 7.0625C22.5215 6.22917 21.4978 5.8125 20.2694 5.8125C19.3071 5.8125 18.4165 6.08854 17.5975 6.64063C16.7786 7.19271 16.2155 7.89583 15.9084 8.75H13.5744C13.2672 7.89583 12.7042 7.19271 11.8852 6.64063C11.0663 6.08854 10.1756 5.8125 9.21336 5.8125C7.98491 5.8125 6.9612 6.22917 6.14224 7.0625C5.32327 7.89583 4.91379 8.9375 4.91379 10.1875C4.91379 10.9167 5.05711 11.651 5.34375 12.3906C5.63039 13.1302 6.14224 13.974 6.87931 14.9219C7.61638 15.8698 8.61961 16.9844 9.88901 18.2656C11.1584 19.5469 12.7759 21.0833 14.7414 22.875Z" fill="#1C1B1F"/>
</g>
</svg>
