<svg xmlns="http://www.w3.org/2000/svg" width="30" height="27" viewBox="0 0 30 27" fill="#393939" preserveAspectRatio="none">
<path d="M18.9727 29.8138C16.7344 30.5434 14.3965 29.0641 13.7578 26.5071L13.4238 25.1684C13.207 24.2982 12.8145 23.4949 12.2813 22.8256L9.27539 19.0503C8.75391 18.3943 8.79492 17.3769 9.36914 16.7811C9.94336 16.1854 10.834 16.2323 11.3555 16.8882L14.3613 20.6635C15.1875 21.701 15.791 22.9394 16.125 24.2848L16.459 25.6235C16.6699 26.4736 17.4492 26.969 18.1992 26.728C18.9492 26.487 19.377 25.5968 19.166 24.74L18.832 23.4012C18.498 22.0692 17.9707 20.8108 17.2734 19.6862C16.9687 19.1976 16.9336 18.555 17.1738 18.0195C17.4141 17.484 17.8945 17.1493 18.4219 17.1493H26.25C26.7656 17.1493 27.1875 16.6673 27.1875 16.0783C27.1875 15.6231 26.9355 15.2282 26.5781 15.0742C26.1445 14.8868 25.8164 14.4718 25.7051 13.9564C25.5938 13.441 25.7109 12.8988 26.0156 12.5039C26.1621 12.3164 26.25 12.0688 26.25 11.7943C26.25 11.2722 25.9219 10.8371 25.4883 10.7434C25.0078 10.6363 24.6035 10.2548 24.4336 9.72597C24.2637 9.19716 24.3398 8.60812 24.6445 8.16633C24.7676 7.9856 24.8438 7.75801 24.8438 7.50365C24.8438 7.05517 24.5977 6.66025 24.2461 6.50629C23.5723 6.20507 23.209 5.37505 23.4023 4.5785C23.4258 4.49148 23.4375 4.39108 23.4375 4.29067C23.4375 3.70162 23.0156 3.21968 22.5 3.21968H16.7871C16.0488 3.21968 15.3223 3.46734 14.707 3.9359L11.0918 6.68702C10.4473 7.18236 9.57422 6.98154 9.14062 6.23854C8.70703 5.49554 8.88281 4.50487 9.5332 4.00954L13.1484 1.25842C14.2266 0.435091 15.4922 0 16.7871 0H22.5C24.5332 0 26.1855 1.84747 26.25 4.1501C27.1055 4.93327 27.6562 6.13814 27.6562 7.49696C27.6562 7.79818 27.627 8.08601 27.5801 8.36714C28.4824 9.15031 29.0625 10.3886 29.0625 11.7809C29.0625 12.216 29.0039 12.6377 28.8984 13.0327C29.5781 13.8225 30 14.8935 30 16.0783C30 18.4412 28.3242 20.3623 26.25 20.3623H20.8418C21.1172 21.0584 21.3516 21.7813 21.5332 22.5177L21.8672 23.8564C22.5059 26.4134 21.2109 29.0842 18.9727 29.8138ZM1.875 23.5753C0.837891 23.5753 0 22.6181 0 21.4333V6.43935C0 5.25457 0.837891 4.29736 1.875 4.29736H5.625C6.66211 4.29736 7.5 5.25457 7.5 6.43935V21.4333C7.5 22.6181 6.66211 23.5753 5.625 23.5753H1.875Z" fill="black"/>
</svg>
