<svg width="30" height="27" viewBox="0 0 30 27" fill="none" xmlns="http://www.w3.org/2000/svg">
<path d="M18.9727 0.162986C16.7344 -0.475685 14.3965 0.819236 13.7578 3.05752L13.4238 4.22939C13.207 4.99111 12.8145 5.69424 12.2813 6.28017L9.27539 9.58486C8.75391 10.1591 8.79492 11.0497 9.36914 11.5712C9.94336 12.0927 10.834 12.0517 11.3555 11.4774L14.3613 8.17275C15.1875 7.26455 15.791 6.18056 16.125 5.00283L16.459 3.83096C16.6699 3.08681 17.4492 2.65322 18.1992 2.86416C18.9492 3.0751 19.377 3.85439 19.166 4.60439L18.832 5.77627C18.498 6.94228 17.9707 8.04385 17.2734 9.02822C16.9687 9.45596 16.9336 10.0185 17.1738 10.4872C17.4141 10.956 17.8945 11.2489 18.4219 11.2489H26.25C26.7656 11.2489 27.1875 11.6708 27.1875 12.1864C27.1875 12.5849 26.9355 12.9306 26.5781 13.0653C26.1445 13.2294 25.8164 13.5927 25.7051 14.0438C25.5938 14.495 25.7109 14.9696 26.0156 15.3153C26.1621 15.4794 26.25 15.6962 26.25 15.9364C26.25 16.3935 25.9219 16.7743 25.4883 16.8563C25.0078 16.9501 24.6035 17.2841 24.4336 17.7411C24.2637 18.1981 24.3398 18.7196 24.6445 19.1063C24.7676 19.2645 24.8438 19.4638 24.8438 19.6864C24.8438 20.079 24.5977 20.4247 24.2461 20.5595C23.5723 20.8231 23.209 21.5497 23.4023 22.247C23.4258 22.3231 23.4375 22.411 23.4375 22.4989C23.4375 23.0145 23.0156 23.4364 22.5 23.4364H16.7871C16.0488 23.4364 15.3223 23.2196 14.707 22.8095L11.0918 20.4013C10.4473 19.9677 9.57422 20.1435 9.14062 20.7938C8.70703 21.4442 8.88281 22.3114 9.5332 22.745L13.1484 25.1532C14.2266 25.8739 15.4922 26.2548 16.7871 26.2548H22.5C24.5332 26.2548 26.1855 24.6376 26.25 22.622C27.1055 21.9364 27.6562 20.8817 27.6562 19.6923C27.6562 19.4286 27.627 19.1767 27.5801 18.9306C28.4824 18.245 29.0625 17.161 29.0625 15.9423C29.0625 15.5614 29.0039 15.1923 28.8984 14.8466C29.5781 14.161 30 13.2235 30 12.1864C30 10.1181 28.3242 8.43642 26.25 8.43642H20.8418C21.1172 7.82705 21.3516 7.19424 21.5332 6.54971L21.8672 5.37783C22.5059 3.13955 21.2109 0.801658 18.9727 0.162986ZM1.875 9.37392C0.837891 9.37392 0 10.2118 0 11.2489V24.3739C0 25.411 0.837891 26.2489 1.875 26.2489H5.625C6.66211 26.2489 7.5 25.411 7.5 24.3739V11.2489C7.5 10.2118 6.66211 9.37392 5.625 9.37392H1.875Z" fill="black"/>
</svg>
