<svg width="50" height="50" viewBox="0 0 50 50" fill="none" xmlns="http://www.w3.org/2000/svg">
<path d="M21.6904 0C20.2565 0 18.8866 0.510781 17.8715 1.42578L16.6798 2.5H2.81289C2.44538 2.49531 2.08051 2.55652 1.73947 2.68005C1.39843 2.80359 1.08803 2.98699 0.826304 3.2196C0.56458 3.45221 0.356753 3.72939 0.214901 4.03504C0.0730484 4.34068 0 4.66869 0 5C0 5.33131 0.0730484 5.65932 0.214901 5.96496C0.356753 6.27061 0.56458 6.54779 0.826304 6.7804C1.08803 7.01301 1.39843 7.19641 1.73947 7.31995C2.08051 7.44348 2.44538 7.50469 2.81289 7.5H47.1871C47.5546 7.50469 47.9195 7.44348 48.2605 7.31995C48.6016 7.19641 48.912 7.01301 49.1737 6.7804C49.4354 6.54779 49.6433 6.27061 49.7851 5.96496C49.927 5.65932 50 5.33131 50 5C50 4.66869 49.927 4.34068 49.7851 4.03504C49.6433 3.72939 49.4354 3.45221 49.1737 3.2196C48.912 2.98699 48.6016 2.80359 48.2605 2.68005C47.9195 2.55652 47.5546 2.49531 47.1871 2.5H33.3202L32.1285 1.42578C31.1162 0.510781 29.7435 0 28.3097 0H21.6904ZM3.82583 12.5L8.06174 45.6592C8.42783 48.1342 10.7919 50 13.5598 50H36.4348C39.2027 50 41.5694 48.1371 41.9383 45.6396L46.1742 12.5H3.82583Z" fill="#F87171"/>
</svg>
